<svg width="1920" height="1280" viewBox="0 0 1920 1280" fill="none" xmlns="http://www.w3.org/2000/svg">
<rect width="1920" height="1280" fill="#202730"/>
<g clip-path="url(#clip0_35_713)">
<path d="M1458.12 1133.93L1430.76 1133.93L1417.74 1028.34L1458.13 1028.34L1458.12 1133.93Z" fill="#724A50"/>
<path d="M1459.08 1162.49L1374.94 1162.49V1161.42C1374.95 1143.33 1389.61 1128.66 1407.69 1128.66L1423.06 1116.99L1451.74 1128.66L1459.08 1128.66L1459.08 1162.49Z" fill="#181C20"/>
<path d="M1336.82 1133.93L1309.46 1133.93L1296.44 1028.34L1336.82 1028.34L1336.82 1133.93Z" fill="#724A50"/>
<path d="M1337.78 1162.49L1253.64 1162.49V1161.42C1253.64 1143.33 1268.31 1128.66 1286.39 1128.66L1301.76 1116.99L1330.44 1128.66L1337.78 1128.66L1337.78 1162.49Z" fill="#181C20"/>
<path d="M1323.78 544.665L1481.64 547.99C1481.64 547.99 1510.02 594.54 1488.35 660.208L1490.78 678.495L1480.81 706.758L1475.82 793.207L1480.81 806.507L1477.48 831.444C1477.48 831.444 1490.78 996.03 1457.54 1079.15L1417.66 1077.49L1402.71 860.616L1411.02 844.744L1409.36 838.094L1389.42 738.345L1369.48 789.882V818.517L1351.2 839.757C1351.2 839.757 1357.84 1035.93 1339.57 1075.83H1294.92L1278.09 809.832L1294.7 655.221L1291.38 645.246L1296.36 640.258L1293.04 623.633L1323.78 544.665Z" fill="#2A2F39"/>
<path d="M1391.08 241.637L1439.27 230L1452.56 261.587C1452.56 261.587 1521.34 298.162 1524.66 348.037C1524.66 348.037 1533.98 387.936 1525.67 406.224C1517.36 424.511 1482.47 482.698 1482.47 482.698C1482.47 482.698 1514.04 584.109 1505.73 589.097C1497.42 594.084 1299.69 584.109 1299.69 574.135C1299.69 564.16 1332.6 459.423 1332.6 459.423L1339.57 279.875L1384.43 263.25L1391.08 241.637Z" fill="#313B32"/>
<path d="M1519.54 650.508C1509.46 645.422 1505.4 633.12 1510.48 623.03C1510.99 622.014 1511.6 621.077 1512.24 620.187L1485.43 436.255L1522.55 437.443L1541.97 616.656C1549.01 622.629 1551.34 632.833 1547.01 641.443C1541.93 651.534 1529.63 655.592 1519.54 650.508Z" fill="#724A50"/>
<path d="M1167.31 563.697C1163.25 553.153 1168.5 541.312 1179.04 537.249C1180.1 536.84 1181.17 536.551 1182.25 536.327L1285.83 382.021L1312.54 407.843L1206.65 553.683C1207.85 562.837 1202.73 571.966 1193.74 575.433C1183.2 579.495 1171.37 574.241 1167.31 563.697Z" fill="#724A50"/>
<path d="M1451.9 389.862C1441.41 353.81 1458.83 317.028 1496.36 317.205C1507.21 317.257 1515.63 320.406 1517.97 329.123C1526.14 359.633 1530.6 405.688 1530.6 405.688L1540.3 454.723L1534.43 464.904L1546.67 497.765L1540.73 513.311L1539.45 592.7L1509.54 591.038L1476.58 530.516L1463.98 523.019C1463.98 523.019 1474.1 425.165 1453.97 396.99L1451.9 389.862Z" fill="#313B32"/>
<path d="M1317.93 301.137C1335.42 267.915 1380.19 260.046 1407.06 286.259C1414.83 293.835 1418.7 301.958 1414.33 309.852C1399.02 337.479 1363.55 367.225 1363.55 367.225L1319.86 437.497L1308.56 440.738L1294.55 472.885L1264.53 508.2L1224.77 529.181L1201.5 505.906L1206.44 475.988L1266.31 396.182C1266.31 396.182 1309.38 341.96 1314.47 307.706L1317.93 301.137Z" fill="#313B32"/>
<path d="M1400.23 231.545C1401.33 231.677 1402.43 231.777 1403.52 231.826C1406.92 232.013 1410.27 231.819 1413.51 231.271C1423.33 229.695 1432.26 225.04 1439.14 218.212C1446.43 211.008 1451.41 201.393 1452.76 190.446C1455.91 164.607 1437.52 141.07 1411.7 137.913C1386.24 134.783 1363.04 152.596 1359.33 177.841C1359.27 178.232 1359.21 178.606 1359.17 178.995C1356.02 204.851 1374.39 228.373 1400.23 231.545Z" fill="#724A50"/>
<path d="M1348.71 176.112C1355.4 179.422 1366.33 169.016 1370.52 175.003C1371.2 173.709 1371.95 172.458 1372.69 171.274C1373.37 170.215 1374.33 167.955 1375.44 167.568C1374.03 170.963 1374.34 175.561 1375.8 179.501C1382.4 181.968 1391.04 176.507 1397.15 170.048C1406.74 159.92 1422.4 185.891 1418.69 199.332C1423.41 193.574 1433.63 196.821 1437.1 203.404C1440.56 209.971 1434.71 215.232 1433.46 222.557L1442.9 221.356C1448.86 215.548 1448.45 205.761 1453.36 199.03C1461.55 187.764 1464.73 176.27 1458.57 164.643C1453.1 154.363 1452.59 141.058 1442.56 135.131C1446.94 132.988 1431.36 136.336 1435.52 129.351C1439.7 122.38 1417.42 121.534 1415.96 125.268C1409.6 117.643 1403.17 112.616 1395.34 118.726C1387.65 124.737 1388.44 131.055 1379.41 130.489C1375.17 130.226 1375.63 138.135 1373.11 141.583C1370.61 145.013 1360.87 147.215 1360.39 146.848C1357.82 144.834 1349.07 161.978 1349.07 161.978C1349.07 161.978 1341.97 172.757 1348.71 176.112Z" fill="#181C20"/>
<path d="M759.088 475.342C917.384 475.342 1045.71 603.731 1045.71 762.107C1045.71 920.482 917.384 1048.87 759.088 1048.87C600.793 1048.87 381.718 891.847 472.469 762.107C563.22 632.366 600.793 475.342 759.088 475.342Z" fill="#181C20"/>
<path d="M1142.71 488.984C1140.14 488.984 1138.05 491.075 1138.05 493.647V642.858C1138.05 645.429 1140.14 647.521 1142.71 647.521C1145.28 647.521 1147.37 645.429 1147.37 642.858V493.647C1147.37 491.075 1145.28 488.984 1142.71 488.984Z" fill="#313B32"/>
<path d="M359.747 377.076C357.177 377.076 355.087 379.167 355.087 381.739V419.042C355.087 421.613 357.177 423.704 359.747 423.704C362.318 423.704 364.408 421.613 364.408 419.042V381.739C364.408 379.167 362.318 377.076 359.747 377.076Z" fill="#313B32"/>
<path d="M359.747 488.984C357.177 488.984 355.087 491.075 355.087 493.647V565.921C355.087 568.493 357.177 570.584 359.747 570.584C362.318 570.584 364.408 568.493 364.408 565.921V493.647C364.408 491.075 362.318 488.984 359.747 488.984Z" fill="#313B32"/>
<path d="M359.747 591.567C357.177 591.567 355.087 593.658 355.087 596.229V668.503C355.087 671.075 357.177 673.166 359.747 673.166C362.318 673.166 364.408 671.075 364.408 668.503V596.229C364.408 593.658 362.318 591.567 359.747 591.567Z" fill="#313B32"/>
<path d="M777.731 230.197C775.16 230.197 773.07 232.288 773.07 234.86V307.134C773.07 309.705 775.16 311.796 777.731 311.796C780.301 311.796 782.391 309.705 782.391 307.134V234.86C782.391 232.288 780.301 230.197 777.731 230.197Z" fill="#313B32"/>
<path d="M1491.71 1124.59C1496.52 1124.89 1499.18 1118.91 1495.54 1115.42L1495.18 1113.98C1495.22 1113.86 1495.27 1113.75 1495.32 1113.63C1500.19 1102.02 1516.69 1102.1 1521.52 1113.73C1525.8 1124.05 1531.25 1134.4 1532.6 1145.31C1533.2 1150.13 1532.93 1155.04 1531.86 1159.77C1541.9 1137.83 1547.18 1113.87 1547.18 1089.78C1547.18 1083.72 1546.85 1077.67 1546.17 1071.63C1545.62 1066.69 1544.85 1061.78 1543.86 1056.92C1538.48 1030.63 1526.85 1005.58 1510.07 984.669C1502 980.256 1495.27 973.36 1491.21 965.093C1489.75 962.111 1488.6 958.904 1488.06 955.636C1488.98 955.757 1491.52 941.767 1490.83 940.909C1492.11 938.967 1494.4 938.001 1495.8 936.106C1502.75 926.679 1512.32 928.325 1517.32 941.135C1528 946.527 1528.1 955.469 1521.55 964.069C1517.38 969.54 1516.81 976.944 1513.15 982.801C1513.53 983.283 1513.92 983.75 1514.3 984.232C1521.2 993.086 1527.16 1002.6 1532.19 1012.6C1530.77 1001.49 1532.87 988.103 1536.45 979.474C1540.52 969.641 1548.16 961.36 1554.88 952.86C1562.96 942.651 1579.52 947.106 1580.95 960.049C1580.96 960.174 1580.97 960.299 1580.99 960.425C1579.99 960.988 1579.01 961.587 1578.05 962.22C1572.6 965.827 1574.49 974.282 1580.94 975.28L1581.09 975.302C1580.73 978.901 1580.11 982.47 1579.21 985.979C1587.84 1019.35 1569.21 1031.51 1542.62 1032.06C1542.03 1032.36 1541.46 1032.66 1540.88 1032.95C1543.57 1040.53 1545.72 1048.32 1547.32 1056.21C1548.75 1063.18 1549.74 1070.23 1550.3 1077.31C1550.99 1086.24 1550.93 1095.21 1550.18 1104.13L1550.22 1103.81C1552.13 1093.99 1557.46 1084.82 1565.2 1078.47C1576.72 1069 1593 1065.51 1605.44 1057.89C1611.42 1054.23 1619.09 1058.96 1618.05 1065.91L1618 1066.24C1616.14 1066.99 1614.34 1067.87 1612.59 1068.84C1611.59 1069.41 1610.62 1070.01 1609.66 1070.64C1604.21 1074.25 1606.09 1082.7 1612.55 1083.7L1612.7 1083.72C1612.8 1083.74 1612.89 1083.75 1613 1083.77C1609.82 1091.31 1605.4 1098.31 1599.86 1104.35C1594.47 1133.49 1571.3 1136.25 1546.52 1127.77H1546.5C1543.8 1139.57 1539.84 1151.11 1534.75 1162.1H1492.76C1492.61 1161.63 1492.47 1161.15 1492.34 1160.69C1496.22 1160.93 1500.13 1160.7 1503.96 1159.99C1500.84 1156.17 1497.73 1152.31 1494.61 1148.49C1494.53 1148.41 1494.47 1148.34 1494.41 1148.26C1492.83 1146.3 1491.24 1144.36 1489.66 1142.4L1489.66 1142.4C1489.56 1136.39 1490.28 1130.4 1491.71 1124.59Z" fill="#313B32"/>
<path d="M302 1162.23C302 1163.76 303.235 1165 304.773 1165H1615.04C1616.58 1165 1617.82 1163.76 1617.82 1162.23C1617.82 1160.69 1616.58 1159.45 1615.04 1159.45H304.773C303.235 1159.45 302 1160.69 302 1162.23Z" fill="#181C20"/>
<path d="M633.77 742.777H472.469V738.114H633.769C647.782 738.114 659.181 726.707 659.181 712.687V603.57H663.842V712.687C663.842 729.278 650.352 742.777 633.77 742.777Z" fill="#313B32"/>
<path d="M941.546 979.311H574.683V983.974H941.546V979.311Z" fill="#313B32"/>
<path d="M1174.31 711.598H978.355C967.78 711.598 959.177 702.991 959.177 692.411V498.749C959.177 488.169 967.78 479.562 978.355 479.562H1174.31C1184.88 479.562 1193.49 488.169 1193.49 498.749V692.411C1193.49 702.991 1184.88 711.598 1174.31 711.598Z" fill="#222931"/>
<path d="M1014.85 485.278C987.257 485.278 964.891 507.656 964.891 535.26V688.302C964.891 698.01 972.757 705.881 982.461 705.881H1102.28C1149.5 705.881 1187.77 667.586 1187.77 620.348V502.858C1187.77 493.149 1179.91 485.278 1170.2 485.278L1014.85 485.278Z" fill="#2A2F39"/>
<path d="M1128.81 541.558H1023.44C1021.43 541.558 1019.79 539.921 1019.79 537.91C1019.79 535.898 1021.43 534.262 1023.44 534.262H1128.81C1130.82 534.262 1132.46 535.898 1132.46 537.91C1132.46 539.921 1130.82 541.558 1128.81 541.558Z" fill="#222931"/>
<path d="M1128.81 619.342H1023.44C1021.43 619.342 1019.79 617.705 1019.79 615.694C1019.79 613.683 1021.43 612.047 1023.44 612.047H1128.81C1130.82 612.047 1132.46 613.683 1132.46 615.694C1132.46 617.706 1130.82 619.342 1128.81 619.342Z" fill="#222931"/>
<path d="M1171.6 580.475H980.648C978.638 580.475 977.002 578.839 977.002 576.827C977.002 574.816 978.638 573.18 980.648 573.18H1171.6C1173.61 573.18 1175.25 574.816 1175.25 576.827C1175.25 578.839 1173.61 580.475 1171.6 580.475Z" fill="#222931"/>
<path d="M1173.55 650.969H1104.57C1102.56 650.969 1100.92 649.333 1100.92 647.321C1100.92 645.31 1102.56 643.674 1104.57 643.674H1173.55C1175.56 643.674 1177.2 645.31 1177.2 647.321C1177.2 649.333 1175.56 650.969 1173.55 650.969Z" fill="#222931"/>
<path d="M762.715 1097.46H607.114C598.717 1097.46 591.886 1090.62 591.886 1082.22V928.442C591.886 920.04 598.717 913.205 607.114 913.205H762.715C771.112 913.205 777.943 920.04 777.943 928.442V1082.22C777.943 1090.62 771.112 1097.46 762.715 1097.46Z" fill="#222931"/>
<path d="M636.092 917.745C614.183 917.745 596.423 935.514 596.423 957.434V1078.96C596.423 1086.67 602.669 1092.92 610.375 1092.92H705.521C743.013 1092.92 773.406 1062.51 773.406 1025V931.704C773.406 923.995 767.159 917.745 759.454 917.745L636.092 917.745Z" fill="#2A2F39"/>
<path d="M726.589 962.434H642.914C641.318 962.434 640.019 961.135 640.019 959.537C640.019 957.94 641.317 956.641 642.914 956.641H726.589C728.185 956.641 729.483 957.94 729.483 959.537C729.483 961.135 728.185 962.434 726.589 962.434Z" fill="#222931"/>
<path d="M726.589 1024.2H642.914C641.318 1024.2 640.019 1022.9 640.019 1021.3C640.019 1019.71 641.317 1018.41 642.914 1018.41H726.589C728.185 1018.41 729.483 1019.71 729.483 1021.3C729.483 1022.9 728.185 1024.2 726.589 1024.2Z" fill="#222931"/>
<path d="M760.567 993.338H608.935C607.339 993.338 606.04 992.038 606.04 990.441C606.04 988.844 607.339 987.545 608.935 987.545H760.567C762.163 987.545 763.462 988.844 763.462 990.441C763.462 992.038 762.163 993.338 760.567 993.338Z" fill="#222931"/>
<path d="M762.115 1049.31H707.338C705.741 1049.31 704.442 1048.01 704.442 1046.42C704.442 1044.82 705.741 1043.52 707.338 1043.52H762.115C763.712 1043.52 765.01 1044.82 765.01 1046.42C765.01 1048.01 763.712 1049.31 762.115 1049.31Z" fill="#222931"/>
<path d="M653.96 602.394H538.886C532.676 602.394 527.624 597.339 527.624 591.126V477.399C527.624 471.185 532.676 466.131 538.886 466.131H653.96C660.17 466.131 665.222 471.185 665.222 477.399V591.126C665.222 597.339 660.17 602.394 653.96 602.394Z" fill="#222931"/>
<path d="M560.316 469.488C544.114 469.488 530.979 482.629 530.979 498.84V588.713C530.979 594.414 535.599 599.036 541.298 599.036H611.662C639.389 599.036 661.866 576.548 661.866 548.807V479.812C661.866 474.11 657.246 469.488 651.548 469.488L560.316 469.488Z" fill="#2A2F39"/>
<path d="M627.243 502.538H565.362C564.181 502.538 563.221 501.577 563.221 500.395C563.221 499.214 564.181 498.254 565.362 498.254H627.243C628.424 498.254 629.384 499.214 629.384 500.395C629.384 501.577 628.424 502.538 627.243 502.538Z" fill="#222931"/>
<path d="M627.243 548.217H565.362C564.181 548.217 563.221 547.255 563.221 546.074C563.221 544.893 564.181 543.932 565.362 543.932H627.243C628.424 543.932 629.384 544.893 629.384 546.074C629.384 547.255 628.424 548.217 627.243 548.217Z" fill="#222931"/>
<path d="M652.371 525.392H540.233C539.052 525.392 538.092 524.431 538.092 523.25C538.092 522.069 539.052 521.108 540.233 521.108H652.371C653.552 521.108 654.512 522.069 654.512 523.25C654.512 524.431 653.552 525.392 652.371 525.392Z" fill="#222931"/>
<path d="M653.517 566.789H613.006C611.826 566.789 610.865 565.828 610.865 564.647C610.865 563.466 611.826 562.505 613.006 562.505H653.517C654.697 562.505 655.658 563.466 655.658 564.647C655.658 565.828 654.697 566.789 653.517 566.789Z" fill="#222931"/>
<path d="M989.782 745.787C1002.65 745.787 1013.08 735.349 1013.08 722.473C1013.08 709.597 1002.65 699.158 989.782 699.158C976.912 699.158 966.479 709.597 966.479 722.473C966.479 735.349 976.912 745.787 989.782 745.787Z" fill="#313B32"/>
<path d="M661.218 626.884C674.088 626.884 684.521 616.446 684.521 603.57C684.521 590.694 674.088 580.256 661.218 580.256C648.349 580.256 637.916 590.694 637.916 603.57C637.916 616.446 648.349 626.884 661.218 626.884Z" fill="#313B32"/>
<path d="M773.07 946.289C785.94 946.289 796.372 935.851 796.372 922.975C796.372 910.099 785.94 899.66 773.07 899.66C760.2 899.66 749.768 910.099 749.768 922.975C749.768 935.851 760.2 946.289 773.07 946.289Z" fill="#313B32"/>
<path d="M823.406 299.839C839.445 299.839 852.448 287.104 852.448 271.394C852.448 255.684 839.445 242.949 823.406 242.949C807.366 242.949 794.363 255.684 794.363 271.394C794.363 287.104 807.366 299.839 823.406 299.839Z" fill="#181C20"/>
<path d="M1056.23 261.663H899.902C894.539 261.663 890.176 257.297 890.176 251.932C890.176 246.566 894.539 242.2 899.902 242.2H1056.23C1061.59 242.2 1065.95 246.566 1065.95 251.932C1065.95 257.297 1061.59 261.663 1056.23 261.663Z" fill="#181C20"/>
<path d="M1178.22 294.599H899.902C894.539 294.599 890.176 290.233 890.176 284.868C890.176 279.502 894.539 275.137 899.902 275.137H1178.22C1183.58 275.137 1187.95 279.502 1187.95 284.868C1187.95 290.233 1183.58 294.599 1178.22 294.599Z" fill="#181C20"/>
<path d="M403.037 419.388C413.418 419.388 421.833 411.146 421.833 400.979C421.833 390.812 413.418 382.57 403.037 382.57C392.656 382.57 384.241 390.812 384.241 400.979C384.241 411.146 392.656 419.388 403.037 419.388Z" fill="#181C20"/>
<path d="M553.715 394.681H452.545C449.074 394.681 446.25 391.856 446.25 388.383C446.25 384.911 449.074 382.086 452.545 382.086H553.715C557.186 382.086 560.01 384.911 560.01 388.383C560.01 391.856 557.186 394.681 553.715 394.681Z" fill="#181C20"/>
<path d="M632.669 415.997H452.545C449.074 415.997 446.25 413.172 446.25 409.699C446.25 406.227 449.074 403.401 452.545 403.401H632.669C636.14 403.401 638.964 406.227 638.964 409.699C638.964 413.172 636.14 415.997 632.669 415.997Z" fill="#181C20"/>
<path d="M966.955 1074.52C977.336 1074.52 985.751 1066.27 985.751 1056.11C985.751 1045.94 977.336 1037.7 966.955 1037.7C956.574 1037.7 948.159 1045.94 948.159 1056.11C948.159 1066.27 956.574 1074.52 966.955 1074.52Z" fill="#181C20"/>
<path d="M1117.63 1049.81H1016.46C1012.99 1049.81 1010.17 1046.98 1010.17 1043.51C1010.17 1040.04 1012.99 1037.21 1016.46 1037.21H1117.63C1121.1 1037.21 1123.93 1040.04 1123.93 1043.51C1123.93 1046.98 1121.1 1049.81 1117.63 1049.81Z" fill="#181C20"/>
<path d="M1196.59 1071.13H1016.46C1012.99 1071.13 1010.17 1068.3 1010.17 1064.83C1010.17 1061.36 1012.99 1058.53 1016.46 1058.53H1196.59C1200.06 1058.53 1202.88 1061.36 1202.88 1064.83C1202.88 1068.3 1200.06 1071.13 1196.59 1071.13Z" fill="#181C20"/>
<path d="M741.029 479.632H736.368V701.117H741.029V479.632Z" fill="#222931"/>
<path d="M738.698 715.106C746.42 715.106 752.68 708.843 752.68 701.117C752.68 693.391 746.42 687.128 738.698 687.128C730.976 687.128 724.717 693.391 724.717 701.117C724.717 708.843 730.976 715.106 738.698 715.106Z" fill="#222931"/>
<path d="M950.75 875.973C958.472 875.973 964.731 869.71 964.731 861.985C964.731 854.259 958.472 847.996 950.75 847.996C943.028 847.996 936.769 854.259 936.769 861.985C936.769 869.71 943.028 875.973 950.75 875.973Z" fill="#222931"/>
<path d="M573.252 684.797C580.974 684.797 587.233 678.534 587.233 670.808C587.233 663.083 580.974 656.82 573.252 656.82C565.53 656.82 559.271 663.083 559.271 670.808C559.271 678.534 565.53 684.797 573.252 684.797Z" fill="#222931"/>
<path d="M568.085 670.83L491.623 673.146L491.764 677.809L568.226 675.493L568.085 670.83Z" fill="#222931"/>
<path d="M1064.49 915.537H948.549V861.985H953.209V910.874H1064.49V915.537Z" fill="#222931"/>
<path d="M567.513 837.54C575.234 837.54 581.494 831.277 581.494 823.552C581.494 815.826 575.234 809.563 567.513 809.563C559.791 809.563 553.531 815.826 553.531 823.552C553.531 831.277 559.791 837.54 567.513 837.54Z" fill="#222931"/>
<path d="M679.874 877.104H563.931V823.552H568.591V872.441H679.874V877.104Z" fill="#222931"/>
<path d="M1034.64 770.324H477.753V774.987H1034.64V770.324Z" fill="#222931"/>
</g>
<defs>
<clipPath id="clip0_35_713">
<rect width="1316.14" height="1049" fill="white" transform="translate(302 116)"/>
</clipPath>
</defs>
</svg>
