<svg xmlns="http://www.w3.org/2000/svg" xmlns:xlink="http://www.w3.org/1999/xlink" width="500" zoomAndPan="magnify" viewBox="0 0 375 225" height="300" preserveAspectRatio="xMidYMid meet" version="1.0"><defs><g/><clipPath id="f4260e203b"><path d="M 120.027344 105.125 L 357.027344 105.125 L 357.027344 123.875 L 120.027344 123.875 Z M 120.027344 105.125 " clip-rule="nonzero"/></clipPath><linearGradient x1="60.66805" gradientTransform="matrix(0.586603, 0, 0, -0.586603, 117.129227, -82.72355)" y1="-448.716968" x2="377.52494" gradientUnits="userSpaceOnUse" y2="-265.780261" id="c01b368dbf"><stop stop-opacity="1" stop-color="rgb(75.376892%, 74.812317%, 83.560181%)" offset="0"/><stop stop-opacity="1" stop-color="rgb(75.172424%, 74.530029%, 83.384705%)" offset="0.00390625"/><stop stop-opacity="1" stop-color="rgb(74.967957%, 74.247742%, 83.210754%)" offset="0.0078125"/><stop stop-opacity="1" stop-color="rgb(74.763489%, 73.963928%, 83.036804%)" offset="0.0117187"/><stop stop-opacity="1" stop-color="rgb(74.559021%, 73.681641%, 82.862854%)" offset="0.015625"/><stop stop-opacity="1" stop-color="rgb(74.354553%, 73.399353%, 82.687378%)" offset="0.0195312"/><stop stop-opacity="1" stop-color="rgb(74.150085%, 73.117065%, 82.513428%)" offset="0.0234375"/><stop stop-opacity="1" stop-color="rgb(73.945618%, 72.833252%, 82.339478%)" offset="0.0273437"/><stop stop-opacity="1" stop-color="rgb(73.74115%, 72.550964%, 82.165527%)" offset="0.03125"/><stop stop-opacity="1" stop-color="rgb(73.536682%, 72.268677%, 81.990051%)" offset="0.0351562"/><stop stop-opacity="1" stop-color="rgb(73.332214%, 71.986389%, 81.816101%)" offset="0.0390625"/><stop stop-opacity="1" stop-color="rgb(73.127747%, 71.702576%, 81.642151%)" offset="0.0429688"/><stop stop-opacity="1" stop-color="rgb(72.923279%, 71.420288%, 81.468201%)" offset="0.046875"/><stop stop-opacity="1" stop-color="rgb(72.718811%, 71.138%, 81.292725%)" offset="0.0507812"/><stop stop-opacity="1" stop-color="rgb(72.514343%, 70.855713%, 81.118774%)" offset="0.0546875"/><stop stop-opacity="1" stop-color="rgb(72.309875%, 70.573425%, 80.944824%)" offset="0.0585938"/><stop stop-opacity="1" stop-color="rgb(72.105408%, 70.291138%, 80.770874%)" offset="0.0625"/><stop stop-opacity="1" stop-color="rgb(71.90094%, 70.007324%, 80.595398%)" offset="0.0664062"/><stop stop-opacity="1" stop-color="rgb(71.696472%, 69.725037%, 80.421448%)" offset="0.0703125"/><stop stop-opacity="1" stop-color="rgb(71.492004%, 69.442749%, 80.247498%)" offset="0.0742187"/><stop stop-opacity="1" stop-color="rgb(71.287537%, 69.160461%, 80.073547%)" offset="0.078125"/><stop stop-opacity="1" stop-color="rgb(71.083069%, 68.876648%, 79.898071%)" offset="0.0820312"/><stop stop-opacity="1" stop-color="rgb(70.878601%, 68.59436%, 79.724121%)" offset="0.0859375"/><stop stop-opacity="1" stop-color="rgb(70.674133%, 68.312073%, 79.550171%)" offset="0.0898437"/><stop stop-opacity="1" stop-color="rgb(70.469666%, 68.029785%, 79.376221%)" offset="0.09375"/><stop stop-opacity="1" stop-color="rgb(70.265198%, 67.745972%, 79.200745%)" offset="0.0976562"/><stop stop-opacity="1" stop-color="rgb(70.06073%, 67.463684%, 79.026794%)" offset="0.101562"/><stop stop-opacity="1" stop-color="rgb(69.856262%, 67.181396%, 78.852844%)" offset="0.105469"/><stop stop-opacity="1" stop-color="rgb(69.651794%, 66.899109%, 78.678894%)" offset="0.109375"/><stop stop-opacity="1" stop-color="rgb(69.447327%, 66.616821%, 78.503418%)" offset="0.113281"/><stop stop-opacity="1" stop-color="rgb(69.242859%, 66.334534%, 78.329468%)" offset="0.117188"/><stop stop-opacity="1" stop-color="rgb(69.038391%, 66.05072%, 78.155518%)" offset="0.121094"/><stop stop-opacity="1" stop-color="rgb(68.833923%, 65.768433%, 77.981567%)" offset="0.125"/><stop stop-opacity="1" stop-color="rgb(68.629456%, 65.486145%, 77.806091%)" offset="0.128906"/><stop stop-opacity="1" stop-color="rgb(68.424988%, 65.203857%, 77.632141%)" offset="0.132812"/><stop stop-opacity="1" stop-color="rgb(68.22052%, 64.920044%, 77.458191%)" offset="0.136719"/><stop stop-opacity="1" stop-color="rgb(68.016052%, 64.637756%, 77.284241%)" offset="0.140625"/><stop stop-opacity="1" stop-color="rgb(67.810059%, 64.355469%, 77.108765%)" offset="0.144531"/><stop stop-opacity="1" stop-color="rgb(67.605591%, 64.073181%, 76.934814%)" offset="0.148437"/><stop stop-opacity="1" stop-color="rgb(67.401123%, 63.789368%, 76.760864%)" offset="0.152344"/><stop stop-opacity="1" stop-color="rgb(67.196655%, 63.50708%, 76.586914%)" offset="0.15625"/><stop stop-opacity="1" stop-color="rgb(66.992188%, 63.224792%, 76.411438%)" offset="0.160156"/><stop stop-opacity="1" stop-color="rgb(66.78772%, 62.942505%, 76.237488%)" offset="0.164062"/><stop stop-opacity="1" stop-color="rgb(66.583252%, 62.658691%, 76.063538%)" offset="0.167969"/><stop stop-opacity="1" stop-color="rgb(66.378784%, 62.376404%, 75.889587%)" offset="0.171875"/><stop stop-opacity="1" stop-color="rgb(66.174316%, 62.094116%, 75.714111%)" offset="0.175781"/><stop stop-opacity="1" stop-color="rgb(65.969849%, 61.811829%, 75.540161%)" offset="0.179687"/><stop stop-opacity="1" stop-color="rgb(65.765381%, 61.529541%, 75.366211%)" offset="0.183594"/><stop stop-opacity="1" stop-color="rgb(65.560913%, 61.247253%, 75.192261%)" offset="0.1875"/><stop stop-opacity="1" stop-color="rgb(65.356445%, 60.96344%, 75.016785%)" offset="0.191406"/><stop stop-opacity="1" stop-color="rgb(65.151978%, 60.681152%, 74.842834%)" offset="0.195312"/><stop stop-opacity="1" stop-color="rgb(64.94751%, 60.398865%, 74.668884%)" offset="0.199219"/><stop stop-opacity="1" stop-color="rgb(64.743042%, 60.116577%, 74.494934%)" offset="0.203125"/><stop stop-opacity="1" stop-color="rgb(64.538574%, 59.832764%, 74.319458%)" offset="0.207031"/><stop stop-opacity="1" stop-color="rgb(64.334106%, 59.550476%, 74.145508%)" offset="0.210937"/><stop stop-opacity="1" stop-color="rgb(64.129639%, 59.268188%, 73.971558%)" offset="0.214844"/><stop stop-opacity="1" stop-color="rgb(63.925171%, 58.985901%, 73.797607%)" offset="0.21875"/><stop stop-opacity="1" stop-color="rgb(63.720703%, 58.702087%, 73.622131%)" offset="0.222656"/><stop stop-opacity="1" stop-color="rgb(63.516235%, 58.4198%, 73.448181%)" offset="0.226562"/><stop stop-opacity="1" stop-color="rgb(63.311768%, 58.137512%, 73.274231%)" offset="0.230469"/><stop stop-opacity="1" stop-color="rgb(63.1073%, 57.855225%, 73.100281%)" offset="0.234375"/><stop stop-opacity="1" stop-color="rgb(62.902832%, 57.572937%, 72.924805%)" offset="0.238281"/><stop stop-opacity="1" stop-color="rgb(62.698364%, 57.290649%, 72.750854%)" offset="0.242187"/><stop stop-opacity="1" stop-color="rgb(62.493896%, 57.006836%, 72.576904%)" offset="0.246094"/><stop stop-opacity="1" stop-color="rgb(62.289429%, 56.724548%, 72.402954%)" offset="0.25"/><stop stop-opacity="1" stop-color="rgb(62.084961%, 56.442261%, 72.227478%)" offset="0.253906"/><stop stop-opacity="1" stop-color="rgb(61.880493%, 56.159973%, 72.053528%)" offset="0.257812"/><stop stop-opacity="1" stop-color="rgb(61.676025%, 55.87616%, 71.879578%)" offset="0.261719"/><stop stop-opacity="1" stop-color="rgb(61.471558%, 55.593872%, 71.705627%)" offset="0.265625"/><stop stop-opacity="1" stop-color="rgb(61.26709%, 55.311584%, 71.530151%)" offset="0.269531"/><stop stop-opacity="1" stop-color="rgb(61.062622%, 55.029297%, 71.356201%)" offset="0.273438"/><stop stop-opacity="1" stop-color="rgb(60.858154%, 54.745483%, 71.182251%)" offset="0.277344"/><stop stop-opacity="1" stop-color="rgb(60.653687%, 54.463196%, 71.008301%)" offset="0.28125"/><stop stop-opacity="1" stop-color="rgb(60.447693%, 54.180908%, 70.832825%)" offset="0.285156"/><stop stop-opacity="1" stop-color="rgb(60.243225%, 53.898621%, 70.658875%)" offset="0.289062"/><stop stop-opacity="1" stop-color="rgb(60.038757%, 53.616333%, 70.484924%)" offset="0.292969"/><stop stop-opacity="1" stop-color="rgb(59.83429%, 53.334045%, 70.310974%)" offset="0.296875"/><stop stop-opacity="1" stop-color="rgb(59.629822%, 53.050232%, 70.135498%)" offset="0.300781"/><stop stop-opacity="1" stop-color="rgb(59.425354%, 52.767944%, 69.961548%)" offset="0.304688"/><stop stop-opacity="1" stop-color="rgb(59.220886%, 52.485657%, 69.787598%)" offset="0.308594"/><stop stop-opacity="1" stop-color="rgb(59.016418%, 52.203369%, 69.613647%)" offset="0.3125"/><stop stop-opacity="1" stop-color="rgb(58.811951%, 51.919556%, 69.438171%)" offset="0.316406"/><stop stop-opacity="1" stop-color="rgb(58.607483%, 51.637268%, 69.264221%)" offset="0.320312"/><stop stop-opacity="1" stop-color="rgb(58.403015%, 51.35498%, 69.090271%)" offset="0.324219"/><stop stop-opacity="1" stop-color="rgb(58.198547%, 51.072693%, 68.916321%)" offset="0.328125"/><stop stop-opacity="1" stop-color="rgb(57.99408%, 50.788879%, 68.740845%)" offset="0.332031"/><stop stop-opacity="1" stop-color="rgb(57.789612%, 50.506592%, 68.566895%)" offset="0.335938"/><stop stop-opacity="1" stop-color="rgb(57.585144%, 50.224304%, 68.392944%)" offset="0.339844"/><stop stop-opacity="1" stop-color="rgb(57.380676%, 49.942017%, 68.218994%)" offset="0.34375"/><stop stop-opacity="1" stop-color="rgb(57.176208%, 49.658203%, 68.043518%)" offset="0.347656"/><stop stop-opacity="1" stop-color="rgb(56.971741%, 49.375916%, 67.869568%)" offset="0.351562"/><stop stop-opacity="1" stop-color="rgb(56.767273%, 49.093628%, 67.695618%)" offset="0.355469"/><stop stop-opacity="1" stop-color="rgb(56.562805%, 48.81134%, 67.521667%)" offset="0.359375"/><stop stop-opacity="1" stop-color="rgb(56.358337%, 48.529053%, 67.346191%)" offset="0.363281"/><stop stop-opacity="1" stop-color="rgb(56.15387%, 48.246765%, 67.172241%)" offset="0.367188"/><stop stop-opacity="1" stop-color="rgb(55.949402%, 47.962952%, 66.998291%)" offset="0.371094"/><stop stop-opacity="1" stop-color="rgb(55.744934%, 47.680664%, 66.824341%)" offset="0.375"/><stop stop-opacity="1" stop-color="rgb(55.540466%, 47.398376%, 66.648865%)" offset="0.378906"/><stop stop-opacity="1" stop-color="rgb(55.335999%, 47.116089%, 66.474915%)" offset="0.382812"/><stop stop-opacity="1" stop-color="rgb(55.131531%, 46.832275%, 66.300964%)" offset="0.386719"/><stop stop-opacity="1" stop-color="rgb(54.927063%, 46.549988%, 66.127014%)" offset="0.390625"/><stop stop-opacity="1" stop-color="rgb(54.722595%, 46.2677%, 65.951538%)" offset="0.394531"/><stop stop-opacity="1" stop-color="rgb(54.518127%, 45.985413%, 65.777588%)" offset="0.398438"/><stop stop-opacity="1" stop-color="rgb(54.31366%, 45.701599%, 65.603638%)" offset="0.402344"/><stop stop-opacity="1" stop-color="rgb(54.109192%, 45.419312%, 65.429688%)" offset="0.40625"/><stop stop-opacity="1" stop-color="rgb(53.904724%, 45.137024%, 65.254211%)" offset="0.410156"/><stop stop-opacity="1" stop-color="rgb(53.700256%, 44.854736%, 65.080261%)" offset="0.414062"/><stop stop-opacity="1" stop-color="rgb(53.495789%, 44.572449%, 64.906311%)" offset="0.417969"/><stop stop-opacity="1" stop-color="rgb(53.291321%, 44.290161%, 64.732361%)" offset="0.421875"/><stop stop-opacity="1" stop-color="rgb(53.086853%, 44.006348%, 64.556885%)" offset="0.425781"/><stop stop-opacity="1" stop-color="rgb(52.882385%, 43.72406%, 64.382935%)" offset="0.429687"/><stop stop-opacity="1" stop-color="rgb(52.676392%, 43.441772%, 64.208984%)" offset="0.433594"/><stop stop-opacity="1" stop-color="rgb(52.471924%, 43.159485%, 64.035034%)" offset="0.4375"/><stop stop-opacity="1" stop-color="rgb(52.267456%, 42.875671%, 63.859558%)" offset="0.441406"/><stop stop-opacity="1" stop-color="rgb(52.062988%, 42.593384%, 63.685608%)" offset="0.445312"/><stop stop-opacity="1" stop-color="rgb(51.858521%, 42.311096%, 63.511658%)" offset="0.449219"/><stop stop-opacity="1" stop-color="rgb(51.654053%, 42.028809%, 63.337708%)" offset="0.453125"/><stop stop-opacity="1" stop-color="rgb(51.449585%, 41.744995%, 63.162231%)" offset="0.457031"/><stop stop-opacity="1" stop-color="rgb(51.245117%, 41.462708%, 62.988281%)" offset="0.460937"/><stop stop-opacity="1" stop-color="rgb(51.040649%, 41.18042%, 62.814331%)" offset="0.464844"/><stop stop-opacity="1" stop-color="rgb(50.836182%, 40.898132%, 62.640381%)" offset="0.46875"/><stop stop-opacity="1" stop-color="rgb(50.631714%, 40.615845%, 62.464905%)" offset="0.472656"/><stop stop-opacity="1" stop-color="rgb(50.427246%, 40.333557%, 62.290955%)" offset="0.476563"/><stop stop-opacity="1" stop-color="rgb(50.222778%, 40.049744%, 62.117004%)" offset="0.480469"/><stop stop-opacity="1" stop-color="rgb(50.018311%, 39.767456%, 61.943054%)" offset="0.484375"/><stop stop-opacity="1" stop-color="rgb(49.813843%, 39.485168%, 61.767578%)" offset="0.488281"/><stop stop-opacity="1" stop-color="rgb(49.609375%, 39.202881%, 61.593628%)" offset="0.492188"/><stop stop-opacity="1" stop-color="rgb(49.404907%, 38.919067%, 61.419678%)" offset="0.496094"/><stop stop-opacity="1" stop-color="rgb(49.200439%, 38.63678%, 61.245728%)" offset="0.5"/><stop stop-opacity="1" stop-color="rgb(48.995972%, 38.354492%, 61.070251%)" offset="0.503906"/><stop stop-opacity="1" stop-color="rgb(48.791504%, 38.072205%, 60.896301%)" offset="0.507812"/><stop stop-opacity="1" stop-color="rgb(48.587036%, 37.788391%, 60.722351%)" offset="0.511719"/><stop stop-opacity="1" stop-color="rgb(48.382568%, 37.506104%, 60.548401%)" offset="0.515625"/><stop stop-opacity="1" stop-color="rgb(48.178101%, 37.223816%, 60.372925%)" offset="0.519531"/><stop stop-opacity="1" stop-color="rgb(47.973633%, 36.941528%, 60.198975%)" offset="0.523437"/><stop stop-opacity="1" stop-color="rgb(47.769165%, 36.659241%, 60.025024%)" offset="0.527344"/><stop stop-opacity="1" stop-color="rgb(47.564697%, 36.376953%, 59.851074%)" offset="0.53125"/><stop stop-opacity="1" stop-color="rgb(47.360229%, 36.09314%, 59.675598%)" offset="0.535156"/><stop stop-opacity="1" stop-color="rgb(47.155762%, 35.810852%, 59.501648%)" offset="0.539063"/><stop stop-opacity="1" stop-color="rgb(46.951294%, 35.528564%, 59.327698%)" offset="0.542969"/><stop stop-opacity="1" stop-color="rgb(46.746826%, 35.246277%, 59.153748%)" offset="0.546875"/><stop stop-opacity="1" stop-color="rgb(46.542358%, 34.962463%, 58.978271%)" offset="0.550781"/><stop stop-opacity="1" stop-color="rgb(46.337891%, 34.680176%, 58.804321%)" offset="0.554688"/><stop stop-opacity="1" stop-color="rgb(46.133423%, 34.397888%, 58.630371%)" offset="0.558594"/><stop stop-opacity="1" stop-color="rgb(45.928955%, 34.115601%, 58.456421%)" offset="0.5625"/><stop stop-opacity="1" stop-color="rgb(45.724487%, 33.831787%, 58.280945%)" offset="0.566406"/><stop stop-opacity="1" stop-color="rgb(45.52002%, 33.5495%, 58.106995%)" offset="0.570312"/><stop stop-opacity="1" stop-color="rgb(45.315552%, 33.267212%, 57.933044%)" offset="0.574219"/><stop stop-opacity="1" stop-color="rgb(45.111084%, 32.984924%, 57.759094%)" offset="0.578125"/><stop stop-opacity="1" stop-color="rgb(44.90509%, 32.701111%, 57.583618%)" offset="0.582031"/><stop stop-opacity="1" stop-color="rgb(44.700623%, 32.418823%, 57.409668%)" offset="0.585938"/><stop stop-opacity="1" stop-color="rgb(44.496155%, 32.136536%, 57.235718%)" offset="0.589844"/><stop stop-opacity="1" stop-color="rgb(44.291687%, 31.854248%, 57.061768%)" offset="0.59375"/><stop stop-opacity="1" stop-color="rgb(44.087219%, 31.57196%, 56.886292%)" offset="0.597656"/><stop stop-opacity="1" stop-color="rgb(43.882751%, 31.289673%, 56.712341%)" offset="0.601562"/><stop stop-opacity="1" stop-color="rgb(43.678284%, 31.005859%, 56.538391%)" offset="0.605469"/><stop stop-opacity="1" stop-color="rgb(43.473816%, 30.723572%, 56.364441%)" offset="0.609375"/><stop stop-opacity="1" stop-color="rgb(43.269348%, 30.441284%, 56.188965%)" offset="0.613281"/><stop stop-opacity="1" stop-color="rgb(43.06488%, 30.158997%, 56.015015%)" offset="0.617188"/><stop stop-opacity="1" stop-color="rgb(42.860413%, 29.875183%, 55.841064%)" offset="0.621094"/><stop stop-opacity="1" stop-color="rgb(42.655945%, 29.592896%, 55.667114%)" offset="0.625"/><stop stop-opacity="1" stop-color="rgb(42.451477%, 29.310608%, 55.491638%)" offset="0.628906"/><stop stop-opacity="1" stop-color="rgb(42.247009%, 29.02832%, 55.317688%)" offset="0.632813"/><stop stop-opacity="1" stop-color="rgb(42.042542%, 28.744507%, 55.143738%)" offset="0.636719"/><stop stop-opacity="1" stop-color="rgb(41.838074%, 28.462219%, 54.969788%)" offset="0.640625"/><stop stop-opacity="1" stop-color="rgb(41.633606%, 28.179932%, 54.794312%)" offset="0.644531"/><stop stop-opacity="1" stop-color="rgb(41.429138%, 27.897644%, 54.620361%)" offset="0.648438"/><stop stop-opacity="1" stop-color="rgb(41.22467%, 27.615356%, 54.446411%)" offset="0.652344"/><stop stop-opacity="1" stop-color="rgb(41.020203%, 27.333069%, 54.272461%)" offset="0.65625"/><stop stop-opacity="1" stop-color="rgb(40.815735%, 27.049255%, 54.096985%)" offset="0.660156"/><stop stop-opacity="1" stop-color="rgb(40.611267%, 26.766968%, 53.923035%)" offset="0.664062"/><stop stop-opacity="1" stop-color="rgb(40.406799%, 26.48468%, 53.749084%)" offset="0.667969"/><stop stop-opacity="1" stop-color="rgb(40.202332%, 26.202393%, 53.575134%)" offset="0.671875"/><stop stop-opacity="1" stop-color="rgb(39.997864%, 25.918579%, 53.399658%)" offset="0.675781"/><stop stop-opacity="1" stop-color="rgb(39.793396%, 25.636292%, 53.225708%)" offset="0.679688"/><stop stop-opacity="1" stop-color="rgb(39.588928%, 25.354004%, 53.051758%)" offset="0.683594"/><stop stop-opacity="1" stop-color="rgb(39.38446%, 25.071716%, 52.877808%)" offset="0.6875"/><stop stop-opacity="1" stop-color="rgb(39.179993%, 24.787903%, 52.702332%)" offset="0.691406"/><stop stop-opacity="1" stop-color="rgb(38.975525%, 24.505615%, 52.528381%)" offset="0.695313"/><stop stop-opacity="1" stop-color="rgb(38.771057%, 24.223328%, 52.354431%)" offset="0.699219"/><stop stop-opacity="1" stop-color="rgb(38.566589%, 23.94104%, 52.180481%)" offset="0.703125"/><stop stop-opacity="1" stop-color="rgb(38.362122%, 23.658752%, 52.005005%)" offset="0.707031"/><stop stop-opacity="1" stop-color="rgb(38.157654%, 23.376465%, 51.831055%)" offset="0.710938"/><stop stop-opacity="1" stop-color="rgb(37.953186%, 23.092651%, 51.657104%)" offset="0.714844"/><stop stop-opacity="1" stop-color="rgb(37.748718%, 22.810364%, 51.483154%)" offset="0.71875"/><stop stop-opacity="1" stop-color="rgb(37.54425%, 22.528076%, 51.307678%)" offset="0.722656"/><stop stop-opacity="1" stop-color="rgb(37.339783%, 22.245789%, 51.133728%)" offset="0.726563"/><stop stop-opacity="1" stop-color="rgb(37.133789%, 21.961975%, 50.959778%)" offset="0.730469"/><stop stop-opacity="1" stop-color="rgb(36.929321%, 21.679688%, 50.785828%)" offset="0.734375"/><stop stop-opacity="1" stop-color="rgb(36.724854%, 21.3974%, 50.610352%)" offset="0.738281"/><stop stop-opacity="1" stop-color="rgb(36.520386%, 21.115112%, 50.436401%)" offset="0.742188"/><stop stop-opacity="1" stop-color="rgb(36.315918%, 20.831299%, 50.262451%)" offset="0.746094"/><stop stop-opacity="1" stop-color="rgb(36.11145%, 20.549011%, 50.088501%)" offset="0.75"/><stop stop-opacity="1" stop-color="rgb(35.906982%, 20.266724%, 49.913025%)" offset="0.753906"/><stop stop-opacity="1" stop-color="rgb(35.702515%, 19.984436%, 49.739075%)" offset="0.757812"/><stop stop-opacity="1" stop-color="rgb(35.498047%, 19.700623%, 49.565125%)" offset="0.761719"/><stop stop-opacity="1" stop-color="rgb(35.293579%, 19.418335%, 49.391174%)" offset="0.765625"/><stop stop-opacity="1" stop-color="rgb(35.089111%, 19.136047%, 49.215698%)" offset="0.769531"/><stop stop-opacity="1" stop-color="rgb(34.884644%, 18.85376%, 49.041748%)" offset="0.773438"/><stop stop-opacity="1" stop-color="rgb(34.680176%, 18.571472%, 48.867798%)" offset="0.777344"/><stop stop-opacity="1" stop-color="rgb(34.475708%, 18.289185%, 48.693848%)" offset="0.78125"/><stop stop-opacity="1" stop-color="rgb(34.27124%, 18.005371%, 48.518372%)" offset="0.785156"/><stop stop-opacity="1" stop-color="rgb(34.066772%, 17.723083%, 48.344421%)" offset="0.789063"/><stop stop-opacity="1" stop-color="rgb(33.862305%, 17.440796%, 48.170471%)" offset="0.792969"/><stop stop-opacity="1" stop-color="rgb(33.657837%, 17.158508%, 47.996521%)" offset="0.796875"/><stop stop-opacity="1" stop-color="rgb(33.453369%, 16.874695%, 47.821045%)" offset="0.800781"/><stop stop-opacity="1" stop-color="rgb(33.248901%, 16.592407%, 47.647095%)" offset="0.804688"/><stop stop-opacity="1" stop-color="rgb(33.044434%, 16.31012%, 47.473145%)" offset="0.808594"/><stop stop-opacity="1" stop-color="rgb(32.839966%, 16.027832%, 47.299194%)" offset="0.8125"/><stop stop-opacity="1" stop-color="rgb(32.635498%, 15.744019%, 47.123718%)" offset="0.816406"/><stop stop-opacity="1" stop-color="rgb(32.43103%, 15.461731%, 46.949768%)" offset="0.820312"/><stop stop-opacity="1" stop-color="rgb(32.226562%, 15.179443%, 46.775818%)" offset="0.824219"/><stop stop-opacity="1" stop-color="rgb(32.022095%, 14.897156%, 46.601868%)" offset="0.828125"/><stop stop-opacity="1" stop-color="rgb(31.817627%, 14.614868%, 46.426392%)" offset="0.832031"/><stop stop-opacity="1" stop-color="rgb(31.613159%, 14.332581%, 46.252441%)" offset="0.835937"/><stop stop-opacity="1" stop-color="rgb(31.408691%, 14.048767%, 46.078491%)" offset="0.839844"/><stop stop-opacity="1" stop-color="rgb(31.204224%, 13.766479%, 45.904541%)" offset="0.84375"/><stop stop-opacity="1" stop-color="rgb(30.999756%, 13.484192%, 45.729065%)" offset="0.847656"/><stop stop-opacity="1" stop-color="rgb(30.795288%, 13.201904%, 45.555115%)" offset="0.851563"/><stop stop-opacity="1" stop-color="rgb(30.59082%, 12.918091%, 45.381165%)" offset="0.855469"/><stop stop-opacity="1" stop-color="rgb(30.386353%, 12.635803%, 45.207214%)" offset="0.859375"/><stop stop-opacity="1" stop-color="rgb(30.181885%, 12.353516%, 45.033264%)" offset="0.863281"/><stop stop-opacity="1" stop-color="rgb(29.977417%, 12.071228%, 44.859314%)" offset="0.867188"/><stop stop-opacity="1" stop-color="rgb(29.772949%, 11.787415%, 44.683838%)" offset="0.871094"/><stop stop-opacity="1" stop-color="rgb(29.568481%, 11.505127%, 44.509888%)" offset="0.875"/><stop stop-opacity="1" stop-color="rgb(29.362488%, 11.222839%, 44.335938%)" offset="0.878906"/><stop stop-opacity="1" stop-color="rgb(29.15802%, 10.940552%, 44.161987%)" offset="0.882812"/><stop stop-opacity="1" stop-color="rgb(28.953552%, 10.658264%, 43.986511%)" offset="0.886719"/><stop stop-opacity="1" stop-color="rgb(28.749084%, 10.375977%, 43.812561%)" offset="0.890625"/><stop stop-opacity="1" stop-color="rgb(28.544617%, 10.092163%, 43.638611%)" offset="0.894531"/><stop stop-opacity="1" stop-color="rgb(28.340149%, 9.809875%, 43.464661%)" offset="0.898437"/><stop stop-opacity="1" stop-color="rgb(28.135681%, 9.527588%, 43.289185%)" offset="0.902344"/><stop stop-opacity="1" stop-color="rgb(27.931213%, 9.2453%, 43.115234%)" offset="0.90625"/><stop stop-opacity="1" stop-color="rgb(27.726746%, 8.961487%, 42.941284%)" offset="0.910156"/><stop stop-opacity="1" stop-color="rgb(27.522278%, 8.679199%, 42.767334%)" offset="0.914062"/><stop stop-opacity="1" stop-color="rgb(27.31781%, 8.396912%, 42.591858%)" offset="0.917969"/><stop stop-opacity="1" stop-color="rgb(27.113342%, 8.114624%, 42.417908%)" offset="0.921875"/><stop stop-opacity="1" stop-color="rgb(26.908875%, 7.830811%, 42.243958%)" offset="0.925781"/><stop stop-opacity="1" stop-color="rgb(26.704407%, 7.548523%, 42.070007%)" offset="0.929688"/><stop stop-opacity="1" stop-color="rgb(26.499939%, 7.266235%, 41.894531%)" offset="0.933594"/><stop stop-opacity="1" stop-color="rgb(26.295471%, 6.983948%, 41.720581%)" offset="0.9375"/><stop stop-opacity="1" stop-color="rgb(26.091003%, 6.700134%, 41.546631%)" offset="0.941406"/><stop stop-opacity="1" stop-color="rgb(25.886536%, 6.417847%, 41.372681%)" offset="0.945312"/><stop stop-opacity="1" stop-color="rgb(25.682068%, 6.135559%, 41.197205%)" offset="0.949219"/><stop stop-opacity="1" stop-color="rgb(25.4776%, 5.853271%, 41.023254%)" offset="0.953125"/><stop stop-opacity="1" stop-color="rgb(25.273132%, 5.570984%, 40.849304%)" offset="0.957031"/><stop stop-opacity="1" stop-color="rgb(25.068665%, 5.288696%, 40.675354%)" offset="0.960938"/><stop stop-opacity="1" stop-color="rgb(24.864197%, 5.004883%, 40.499878%)" offset="0.964844"/><stop stop-opacity="1" stop-color="rgb(24.659729%, 4.722595%, 40.325928%)" offset="0.96875"/><stop stop-opacity="1" stop-color="rgb(24.455261%, 4.440308%, 40.151978%)" offset="0.972656"/><stop stop-opacity="1" stop-color="rgb(24.250793%, 4.15802%, 39.978027%)" offset="0.976562"/><stop stop-opacity="1" stop-color="rgb(24.046326%, 3.874207%, 39.802551%)" offset="0.980469"/><stop stop-opacity="1" stop-color="rgb(23.841858%, 3.591919%, 39.628601%)" offset="0.984375"/><stop stop-opacity="1" stop-color="rgb(23.63739%, 3.309631%, 39.454651%)" offset="0.988281"/><stop stop-opacity="1" stop-color="rgb(23.432922%, 3.027344%, 39.280701%)" offset="0.992187"/><stop stop-opacity="1" stop-color="rgb(23.228455%, 2.74353%, 39.105225%)" offset="0.996094"/><stop stop-opacity="1" stop-color="rgb(23.023987%, 2.461243%, 38.931274%)" offset="1"/></linearGradient></defs><g fill="#000000" fill-opacity="1"><g transform="translate(10.879688, 96.025357)"><g><path d="M 35.8125 0 C 30.601562 0 26.039062 -0.800781 22.125 -2.40625 C 19.007812 -3.507812 15.796875 -5.566406 12.484375 -8.578125 C 6.765625 -13.898438 4.160156 -20.625 4.671875 -28.75 L 4.671875 -30.40625 L 21.515625 -30.09375 L 22.875 -30.09375 L 22.875 -28.890625 C 22.976562 -26.390625 23.53125 -24.332031 24.53125 -22.71875 C 26.238281 -19.8125 30 -18.359375 35.8125 -18.359375 C 40.632812 -18.359375 44.097656 -18.910156 46.203125 -20.015625 C 47.304688 -20.515625 48.0625 -21.164062 48.46875 -21.96875 C 48.664062 -22.269531 48.765625 -22.570312 48.765625 -22.875 L 48.90625 -23.625 C 48.90625 -25.726562 47.253906 -27.4375 43.953125 -28.75 C 42.640625 -29.25 41.132812 -29.648438 39.4375 -29.953125 C 38.125 -30.253906 36.664062 -30.503906 35.0625 -30.703125 C 29.039062 -31.304688 24.023438 -32.507812 20.015625 -34.3125 C 16.003906 -35.914062 12.691406 -38.125 10.078125 -40.9375 C 6.472656 -45.050781 4.671875 -49.765625 4.671875 -55.078125 C 4.671875 -58.390625 5.269531 -61.453125 6.46875 -64.265625 C 7.375 -66.472656 8.578125 -68.429688 10.078125 -70.140625 C 15.492188 -76.359375 24.175781 -79.46875 36.125 -79.46875 C 43.25 -79.46875 49.269531 -78.0625 54.1875 -75.25 C 58 -73.144531 61.054688 -70.285156 63.359375 -66.671875 C 65.160156 -63.960938 66.414062 -60.800781 67.125 -57.1875 C 67.320312 -55.988281 67.472656 -54.835938 67.578125 -53.734375 L 67.578125 -50.5625 L 49.359375 -50.5625 L 49.359375 -52.828125 C 49.265625 -53.222656 49.21875 -53.625 49.21875 -54.03125 C 48.914062 -55.132812 48.515625 -56.035156 48.015625 -56.734375 C 45.804688 -59.742188 41.84375 -61.25 36.125 -61.25 C 27.695312 -61.25 23.484375 -59.492188 23.484375 -55.984375 C 23.484375 -54.179688 24.484375 -52.726562 26.484375 -51.625 C 28.597656 -50.320312 32.160156 -49.367188 37.171875 -48.765625 C 48.710938 -47.554688 57.09375 -43.894531 62.3125 -37.78125 C 65.820312 -33.664062 67.578125 -28.945312 67.578125 -23.625 L 67.578125 -22.578125 L 67.421875 -21.21875 C 67.421875 -19.914062 67.269531 -18.710938 66.96875 -17.609375 C 66.164062 -14.398438 64.660156 -11.539062 62.453125 -9.03125 C 59.941406 -6.019531 56.429688 -3.757812 51.921875 -2.25 C 47.410156 -0.75 42.039062 0 35.8125 0 Z M 35.8125 0 "/></g></g></g><g fill="#000000" fill-opacity="1"><g transform="translate(76.647359, 96.025357)"><g><path d="M 99.328125 -77.65625 C 109.765625 -77.757812 118.242188 -74.648438 124.765625 -68.328125 C 131.785156 -61.703125 135.296875 -52.421875 135.296875 -40.484375 L 135.296875 0 L 115.734375 0 L 115.734375 -39.125 C 115.734375 -40.632812 115.484375 -42.34375 114.984375 -44.25 C 114.273438 -46.550781 113.320312 -48.609375 112.125 -50.421875 C 108.914062 -55.535156 104.195312 -58.09375 97.96875 -58.09375 C 91.351562 -58.09375 86.539062 -55.535156 83.53125 -50.421875 C 82.425781 -48.515625 81.625 -46.359375 81.125 -43.953125 C 80.71875 -42.242188 80.515625 -40.535156 80.515625 -38.828125 L 80.515625 0 L 60.796875 0 L 60.796875 -39.125 C 60.796875 -40.632812 60.546875 -42.34375 60.046875 -44.25 C 59.441406 -46.550781 58.539062 -48.609375 57.34375 -50.421875 C 54.03125 -55.535156 49.3125 -58.09375 43.1875 -58.09375 C 36.46875 -58.09375 31.601562 -55.535156 28.59375 -50.421875 C 27.488281 -48.515625 26.6875 -46.359375 26.1875 -43.953125 C 25.78125 -42.242188 25.578125 -40.535156 25.578125 -38.828125 L 25.578125 0 L 4.515625 0 L 4.515625 -77.8125 L 25.578125 -77.8125 L 25.578125 -69.6875 C 30.492188 -75 36.816406 -77.65625 44.546875 -77.65625 C 55.878906 -77.851562 65.0625 -73.488281 72.09375 -64.5625 L 78.40625 -70.4375 C 84.332031 -75.25 91.304688 -77.65625 99.328125 -77.65625 Z M 99.328125 -77.65625 "/></g></g></g><g fill="#000000" fill-opacity="1"><g transform="translate(210.13935, 96.025357)"><g><path d="M 60.203125 -77.8125 L 81.265625 -77.8125 L 81.265625 0 L 60.203125 0 L 60.203125 -8.734375 C 55.890625 -3.109375 49.367188 -0.296875 40.640625 -0.296875 C 30.003906 -0.203125 20.875 -3.914062 13.25 -11.4375 C 5.625 -18.957031 1.757812 -28.085938 1.65625 -38.828125 C 1.550781 -49.460938 5.265625 -58.59375 12.796875 -66.21875 C 20.316406 -73.84375 29.445312 -77.707031 40.1875 -77.8125 C 49.007812 -77.8125 55.679688 -74.953125 60.203125 -69.234375 Z M 53.875 -25.578125 C 57.59375 -29.296875 59.453125 -33.8125 59.453125 -39.125 C 59.453125 -44.539062 57.546875 -49.054688 53.734375 -52.671875 C 49.921875 -56.484375 45.453125 -58.289062 40.328125 -58.09375 C 35.015625 -58.09375 30.5 -56.238281 26.78125 -52.53125 C 23.070312 -48.8125 21.21875 -44.296875 21.21875 -38.984375 C 21.21875 -33.765625 23.125 -29.25 26.9375 -25.4375 C 30.65625 -21.71875 35.171875 -19.859375 40.484375 -19.859375 C 45.898438 -20.066406 50.363281 -21.972656 53.875 -25.578125 Z M 53.875 -25.578125 "/></g></g></g><g fill="#000000" fill-opacity="1"><g transform="translate(289.602391, 96.025357)"><g><path d="M 69.984375 -21.0625 L 69.984375 0 L 4.515625 0 L 4.515625 -21.0625 L 39.875 -56.4375 L 4.515625 -56.4375 L 4.515625 -77.5 L 69.6875 -77.5 L 69.6875 -56.4375 L 34.3125 -21.0625 Z M 69.984375 -21.0625 "/></g></g></g><g fill="#000000" fill-opacity="1"><g transform="translate(94.436066, 188.01951)"><g><path d="M 20.171875 -82.46875 L 20.171875 0 L 3.5625 0 L 3.5625 -82.46875 Z M 20.171875 -82.46875 "/></g></g></g><g fill="#000000" fill-opacity="1"><g transform="translate(113.653902, 188.01951)"><g><path d="M 31.6875 -61.109375 C 40.144531 -61.191406 47.34375 -58.265625 53.28125 -52.328125 C 59.289062 -46.316406 62.296875 -39.117188 62.296875 -30.734375 C 62.367188 -22.265625 59.441406 -15.066406 53.515625 -9.140625 C 47.578125 -3.128906 40.414062 -0.0820312 32.03125 0 C 23.570312 0.0820312 16.335938 -2.84375 10.328125 -8.78125 C 4.316406 -14.71875 1.3125 -21.914062 1.3125 -30.375 C 1.226562 -38.84375 4.148438 -46.039062 10.078125 -51.96875 C 16.015625 -57.976562 23.21875 -61.023438 31.6875 -61.109375 Z M 42.484375 -19.9375 C 45.410156 -22.863281 46.875 -26.421875 46.875 -30.609375 C 46.875 -34.722656 45.367188 -38.285156 42.359375 -41.296875 C 39.347656 -44.140625 35.789062 -45.5625 31.6875 -45.5625 C 27.570312 -45.5625 24.050781 -44.097656 21.125 -41.171875 C 18.195312 -38.085938 16.734375 -34.53125 16.734375 -30.5 C 16.734375 -26.382812 18.234375 -22.820312 21.234375 -19.8125 C 24.160156 -16.882812 27.722656 -15.421875 31.921875 -15.421875 C 36.191406 -15.578125 39.710938 -17.082031 42.484375 -19.9375 Z M 42.484375 -19.9375 "/></g></g></g><g fill="#000000" fill-opacity="1"><g transform="translate(172.732349, 188.01951)"><g><path d="M 49.125 -61.234375 L 64.671875 -61.234375 L 64.671875 -0.125 C 64.671875 8.257812 61.703125 15.421875 55.765625 21.359375 C 49.910156 27.285156 42.789062 30.289062 34.40625 30.375 C 26.570312 30.457031 19.726562 27.882812 13.875 22.65625 C 8.101562 17.59375 4.785156 11.226562 3.921875 3.5625 L 19.578125 3.5625 C 20.128906 6.09375 21.472656 8.425781 23.609375 10.5625 C 26.535156 13.488281 30.097656 14.953125 34.296875 14.953125 C 38.484375 14.953125 42.003906 13.445312 44.859375 10.4375 C 47.785156 7.507812 49.25 3.988281 49.25 -0.125 L 49.125 -6.171875 C 45.09375 -2.140625 40.1875 -0.125 34.40625 -0.125 C 25.945312 -0.0390625 18.710938 -2.96875 12.703125 -8.90625 C 6.679688 -14.832031 3.671875 -22.03125 3.671875 -30.5 C 3.597656 -38.957031 6.523438 -46.15625 12.453125 -52.09375 C 18.390625 -58.101562 25.585938 -61.148438 34.046875 -61.234375 C 40.773438 -61.234375 45.800781 -59.132812 49.125 -54.9375 Z M 49.125 -32.390625 C 48.8125 -35.867188 47.347656 -38.875 44.734375 -41.40625 C 41.722656 -44.257812 38.160156 -45.6875 34.046875 -45.6875 C 29.941406 -45.6875 26.425781 -44.222656 23.5 -41.296875 C 20.570312 -38.210938 19.109375 -34.648438 19.109375 -30.609375 C 19.109375 -26.492188 20.609375 -22.9375 23.609375 -19.9375 C 26.535156 -17.007812 30.097656 -15.546875 34.296875 -15.546875 C 38.566406 -15.703125 42.085938 -17.203125 44.859375 -20.046875 C 47.304688 -22.503906 48.726562 -25.429688 49.125 -28.828125 Z M 49.125 -32.390625 "/></g></g></g><g fill="#000000" fill-opacity="1"><g transform="translate(236.437482, 188.01951)"><g><path d="M 20.046875 -82.703125 L 20.046875 -68.703125 L 3.5625 -68.703125 L 3.5625 -82.703125 Z M 20.171875 -60.984375 L 20.171875 0 L 3.5625 0 L 3.5625 -60.984375 Z M 20.171875 -60.984375 "/></g></g></g><g fill="#000000" fill-opacity="1"><g transform="translate(255.655312, 188.01951)"><g><path d="M 52.453125 -7.359375 C 46.671875 -2.453125 39.945312 0 32.28125 0 C 23.8125 -0.0820312 16.609375 -3.128906 10.671875 -9.140625 C 4.742188 -15.148438 1.820312 -22.347656 1.90625 -30.734375 C 1.976562 -39.191406 5.019531 -46.390625 11.03125 -52.328125 C 17.039062 -58.265625 24.238281 -61.191406 32.625 -61.109375 C 40.21875 -61.023438 46.863281 -58.492188 52.5625 -53.515625 L 41.53125 -42.59375 C 38.84375 -44.570312 35.835938 -45.5625 32.515625 -45.5625 C 28.398438 -45.5625 24.835938 -44.140625 21.828125 -41.296875 C 18.898438 -38.367188 17.4375 -34.804688 17.4375 -30.609375 C 17.28125 -26.492188 18.707031 -22.9375 21.71875 -19.9375 C 24.5625 -17.082031 28.117188 -15.578125 32.390625 -15.421875 C 35.710938 -15.421875 38.71875 -16.410156 41.40625 -18.390625 Z M 52.453125 -7.359375 "/></g></g></g><g fill="#000000" fill-opacity="1"><g transform="translate(305.480404, 188.01951)"><g><path d="M 28.234375 0 C 24.117188 0 20.519531 -0.632812 17.4375 -1.90625 C 14.988281 -2.769531 12.457031 -4.390625 9.84375 -6.765625 C 5.332031 -10.953125 3.273438 -16.25 3.671875 -22.65625 L 3.671875 -23.96875 L 16.96875 -23.734375 L 18.03125 -23.734375 L 18.03125 -22.78125 C 18.113281 -20.800781 18.550781 -19.179688 19.34375 -17.921875 C 20.6875 -15.617188 23.648438 -14.46875 28.234375 -14.46875 C 32.035156 -14.46875 34.765625 -14.90625 36.421875 -15.78125 C 37.296875 -16.175781 37.890625 -16.691406 38.203125 -17.328125 C 38.359375 -17.566406 38.4375 -17.800781 38.4375 -18.03125 L 38.5625 -18.625 C 38.5625 -20.289062 37.253906 -21.632812 34.640625 -22.65625 C 33.617188 -23.050781 32.4375 -23.367188 31.09375 -23.609375 C 30.0625 -23.847656 28.910156 -24.046875 27.640625 -24.203125 C 22.898438 -24.679688 18.945312 -25.628906 15.78125 -27.046875 C 12.613281 -28.316406 10.003906 -30.0625 7.953125 -32.28125 C 5.097656 -35.519531 3.671875 -39.234375 3.671875 -43.421875 C 3.671875 -46.035156 4.148438 -48.453125 5.109375 -50.671875 C 5.816406 -52.410156 6.765625 -53.953125 7.953125 -55.296875 C 12.222656 -60.203125 19.066406 -62.65625 28.484375 -62.65625 C 34.097656 -62.65625 38.84375 -61.546875 42.71875 -59.328125 C 45.71875 -57.671875 48.128906 -55.414062 49.953125 -52.5625 C 51.378906 -50.425781 52.367188 -47.9375 52.921875 -45.09375 C 53.078125 -44.144531 53.195312 -43.234375 53.28125 -42.359375 L 53.28125 -39.875 L 38.921875 -39.875 L 38.921875 -41.640625 C 38.835938 -41.960938 38.796875 -42.28125 38.796875 -42.59375 C 38.554688 -43.46875 38.238281 -44.179688 37.84375 -44.734375 C 36.101562 -47.109375 32.984375 -48.296875 28.484375 -48.296875 C 21.835938 -48.296875 18.515625 -46.910156 18.515625 -44.140625 C 18.515625 -42.710938 19.304688 -41.566406 20.890625 -40.703125 C 22.546875 -39.671875 25.351562 -38.914062 29.3125 -38.4375 C 38.40625 -37.488281 45.007812 -34.601562 49.125 -29.78125 C 51.894531 -26.539062 53.28125 -22.820312 53.28125 -18.625 L 53.28125 -17.796875 L 53.15625 -16.734375 C 53.15625 -15.703125 53.035156 -14.75 52.796875 -13.875 C 52.171875 -11.34375 50.988281 -9.09375 49.25 -7.125 C 47.269531 -4.75 44.5 -2.96875 40.9375 -1.78125 C 37.375 -0.59375 33.140625 0 28.234375 0 Z M 28.234375 0 "/></g></g></g><g clip-path="url(#f4260e203b)"><path fill="url(#c01b368dbf)" d="M 120.027344 123.875 L 120.027344 105.125 L 357.027344 105.125 L 357.027344 123.875 Z M 120.027344 123.875 " fill-rule="nonzero"/></g></svg>