<svg width="1920" height="1080" viewBox="0 0 1920 1080" fill="none" xmlns="http://www.w3.org/2000/svg">
<rect width="1920" height="1080" fill="#202730"/>
<g clip-path="url(#clip0_35_309)">
<path d="M1580.91 800.303H645.107C638.719 800.296 632.595 797.758 628.078 793.245C623.561 788.733 621.02 782.614 621.013 776.233V199.775C621.018 195.099 622.879 190.617 626.188 187.311C629.498 184.005 633.984 182.145 638.664 182.14H1587.04C1591.8 182.145 1596.37 184.037 1599.73 187.4C1603.1 190.764 1604.99 195.323 1605 200.08V776.233C1604.99 782.614 1602.45 788.733 1597.94 793.245C1593.42 797.758 1587.29 800.296 1580.91 800.303Z" fill="#1B1F24"/>
<path d="M1546.77 766.215H674.629C661.844 766.215 651.443 756.485 651.443 744.525V242.538C651.443 233.669 659.151 226.452 668.624 226.452H1552.49C1562.12 226.452 1569.95 233.787 1569.95 242.803V744.525C1569.95 756.485 1559.55 766.215 1546.77 766.215Z" fill="#202730"/>
<path d="M1604.66 198.398H620.675V186.143C620.684 179.74 623.235 173.602 627.769 169.076C632.302 164.55 638.448 162.005 644.857 162H1580.48C1586.89 162.005 1593.04 164.55 1597.57 169.076C1602.1 173.602 1604.66 179.74 1604.66 186.143V198.398Z" fill="#313B32"/>
<path d="M664.622 186.484C668.077 186.484 670.877 183.686 670.877 180.235C670.877 176.784 668.077 173.987 664.622 173.987C661.168 173.987 658.367 176.784 658.367 180.235C658.367 183.686 661.168 186.484 664.622 186.484Z" fill="#1B1F24"/>
<path d="M688.364 186.484C691.819 186.484 694.619 183.686 694.619 180.235C694.619 176.784 691.819 173.987 688.364 173.987C684.91 173.987 682.109 176.784 682.109 180.235C682.109 183.686 684.91 186.484 688.364 186.484Z" fill="#1B1F24"/>
<path d="M712.107 186.484C715.561 186.484 718.362 183.686 718.362 180.235C718.362 176.784 715.561 173.987 712.107 173.987C708.652 173.987 705.852 176.784 705.852 180.235C705.852 183.686 708.652 186.484 712.107 186.484Z" fill="#1B1F24"/>
<path d="M813.829 672.85H596.484C589.709 672.842 583.214 670.15 578.423 665.364C573.632 660.578 570.937 654.089 570.93 647.321V390.344C570.935 385.282 572.951 380.429 576.534 376.849C580.117 373.27 584.974 371.256 590.042 371.25H819.966C825.115 371.256 830.05 373.302 833.69 376.939C837.33 380.575 839.378 385.506 839.384 390.649V647.321C839.376 654.089 836.681 660.578 831.891 665.364C827.1 670.15 820.604 672.842 813.829 672.85Z" fill="#1B1F24"/>
<path d="M813.829 672.85H596.484C589.709 672.842 583.214 670.15 578.423 665.364C573.632 660.578 570.937 654.089 570.93 647.321V390.344C570.935 385.282 572.951 380.429 576.534 376.849C580.117 373.27 584.974 371.256 590.042 371.25H819.966C825.115 371.256 830.05 373.302 833.69 376.939C837.33 380.575 839.378 385.506 839.384 390.649V647.321C839.376 654.089 836.681 660.578 831.891 665.364C827.1 670.15 820.604 672.842 813.829 672.85ZM590.042 374.168C585.749 374.173 581.633 375.879 578.598 378.911C575.562 381.944 573.855 386.055 573.85 390.344V647.321C573.857 653.316 576.244 659.063 580.487 663.302C584.73 667.541 590.484 669.926 596.484 669.932H813.829C819.83 669.926 825.583 667.541 829.826 663.302C834.07 659.063 836.457 653.315 836.463 647.321V390.649C836.458 386.279 834.719 382.09 831.626 379.001C828.533 375.911 824.34 374.173 819.966 374.168H590.042Z" fill="#2E3944"/>
<path d="M705.157 535.542C729.935 535.542 750.022 515.475 750.022 490.722C750.022 465.968 729.935 445.902 705.157 445.902C680.379 445.902 660.292 465.968 660.292 490.722C660.292 515.475 680.379 535.542 705.157 535.542Z" fill="#313B32"/>
<path d="M777.032 598.199H633.281V597.741C633.296 584.525 638.558 571.854 647.913 562.508C657.268 553.162 669.952 547.905 683.182 547.89H727.131C740.361 547.905 753.045 553.162 762.4 562.508C771.755 571.854 777.017 584.525 777.032 597.741V598.199Z" fill="#313B32"/>
<path d="M579.829 575.414C577.912 576.379 575.806 576.913 573.66 576.978C571.515 577.042 569.381 576.636 567.409 575.787C565.438 574.939 563.676 573.669 562.249 572.067C560.822 570.464 559.764 568.569 559.149 566.514L507.017 564.24L522.918 542.297L569.987 547.821C573.511 547.018 577.207 547.535 580.375 549.273C583.543 551.011 585.963 553.849 587.176 557.25C588.389 560.652 588.311 564.379 586.957 567.727C585.603 571.075 583.067 573.81 579.829 575.414Z" fill="#724A50"/>
<path d="M435.089 554.621L406.42 499.462C402.469 491.882 400.726 483.348 401.388 474.828C402.05 466.308 405.09 458.145 410.164 451.265C411.185 449.903 412.269 448.578 413.385 447.328C417.939 442.218 423.614 438.231 429.967 435.677C436.32 433.123 443.178 432.073 450.005 432.607C457.062 433.086 463.913 435.189 470.021 438.753C476.13 442.317 481.33 447.244 485.215 453.149L498.983 473.94C500.392 475.197 519.343 492.667 512.294 515.4L511.082 537.199C510.997 538.615 510.458 539.967 509.544 541.053C508.63 542.139 507.389 542.902 506.007 543.229L442.408 557.99C440.987 558.321 439.495 558.17 438.17 557.56C436.844 556.95 435.76 555.916 435.089 554.621Z" fill="#181C20"/>
<path d="M414.981 659.301C413.484 657.764 412.342 655.918 411.637 653.892C410.931 651.867 410.679 649.712 410.897 647.578C411.115 645.445 411.799 643.385 412.901 641.544C414.002 639.703 415.494 638.126 417.272 636.924L403.794 586.562L429.519 595.128L438.374 641.64C440.198 644.757 440.814 648.434 440.106 651.974C439.397 655.515 437.413 658.673 434.53 660.85C431.647 663.027 428.064 664.072 424.461 663.786C420.858 663.501 417.485 661.905 414.981 659.301Z" fill="#724A50"/>
<path d="M408.662 635.473C407.718 635.015 406.897 634.336 406.272 633.494C405.646 632.652 405.233 631.671 405.068 630.635L396.194 544.623C394.999 537.639 394.823 530.52 395.67 523.485L406.308 459.124C406.751 455.368 408.629 451.927 411.548 449.519C414.468 447.11 418.205 445.92 421.982 446.196C423.968 446.338 425.905 446.88 427.675 447.791C429.446 448.701 431.013 449.961 432.282 451.493C433.552 453.026 434.497 454.8 435.061 456.707C435.625 458.615 435.796 460.617 435.564 462.593L426.878 536.424L436.825 623.503C436.979 624.81 436.734 626.134 436.121 627.3C435.509 628.466 434.558 629.42 433.394 630.036L414.579 635.404C413.669 635.883 412.657 636.138 411.629 636.15C410.6 636.162 409.584 635.93 408.662 635.473Z" fill="#181C20"/>
<path d="M551.2 897.768L568.789 894.437L564.293 825.074L538.334 829.993L551.2 897.768Z" fill="#724A50"/>
<path d="M545.625 892.882L580.264 886.319C583.163 885.77 586.143 885.796 589.032 886.397C591.921 886.998 594.662 888.161 597.101 889.821C599.54 891.48 601.627 893.604 603.244 896.069C604.861 898.535 605.977 901.294 606.526 904.19L606.662 904.907L549.948 915.652L545.625 892.882Z" fill="#181C20"/>
<path d="M395.552 898.316L413.455 898.314L421.971 829.329L395.549 829.331L395.552 898.316Z" fill="#724A50"/>
<path d="M390.985 892.476L426.242 892.474H426.243C429.194 892.474 432.116 893.055 434.842 894.183C437.568 895.311 440.045 896.964 442.131 899.048C444.217 901.133 445.872 903.607 447.001 906.33C448.131 909.054 448.712 911.972 448.712 914.92V915.65L390.986 915.652L390.985 892.476Z" fill="#181C20"/>
<path d="M447.932 417.135C467.74 417.135 483.798 401.094 483.798 381.305C483.798 361.517 467.74 345.475 447.932 345.475C428.124 345.475 412.066 361.517 412.066 381.305C412.066 401.094 428.124 417.135 447.932 417.135Z" fill="#724A50"/>
<path d="M392.604 870.59C391.988 869.926 391.515 869.143 391.215 868.289C390.914 867.434 390.793 866.527 390.859 865.624L415.271 644.247C415.061 642.174 411.746 604.585 438.649 556.49L438.798 556.224L510.888 536.253L518.859 569.844L572.28 861.916C572.471 863.603 571.999 865.299 570.962 866.644C569.925 867.99 568.405 868.88 566.723 869.127L548.129 871.914C546.558 872.149 544.956 871.807 543.617 870.954C542.279 870.1 541.295 868.79 540.848 867.268L477.893 670.285C477.761 669.831 477.486 669.432 477.109 669.148C476.731 668.863 476.272 668.709 475.799 668.706C475.327 668.704 474.866 668.855 474.486 669.135C474.106 669.416 473.827 669.813 473.691 670.265L422.044 867.948C421.642 869.31 420.811 870.506 419.674 871.359C418.537 872.212 417.155 872.675 415.733 872.68H397.412C396.51 872.679 395.618 872.493 394.791 872.133C393.964 871.774 393.22 871.249 392.604 870.59Z" fill="#2A2F39"/>
<path d="M544.966 571.426L467.29 558.121C462.241 557.274 457.565 554.924 453.875 551.378C450.185 547.833 447.653 543.256 446.61 538.249L430.391 461.721C429.761 458.751 429.788 455.679 430.469 452.72C431.15 449.761 432.468 446.986 434.333 444.589C436.198 442.191 438.564 440.229 441.266 438.839C443.968 437.449 446.94 436.664 449.977 436.54C455.228 436.349 460.36 438.132 464.359 441.536C468.359 444.939 470.937 449.717 471.583 454.927L479.723 523.138L548.246 540.925C549.542 541.371 550.666 542.21 551.46 543.326C552.255 544.442 552.68 545.778 552.677 547.147L552.648 564.973C552.646 565.928 552.436 566.871 552.032 567.736C551.628 568.601 551.039 569.368 550.308 569.982C549.576 570.597 548.719 571.045 547.796 571.294C546.874 571.543 545.908 571.589 544.966 571.426Z" fill="#181C20"/>
<path d="M478.442 372.988C484.151 371.808 489.702 368.014 491.228 362.393C492.56 357.482 490.589 352.188 487.503 348.14C483.48 343.131 477.897 339.61 471.64 338.136C465.384 336.662 458.814 337.319 452.974 340.004C453.526 337.108 451.346 334.252 448.663 333.025C445.886 332.001 442.916 331.603 439.967 331.859C430.636 331.989 420.702 332.3 412.986 337.545C406.834 341.727 402.928 348.603 400.904 355.757C398.881 362.911 398.55 370.417 398.232 377.844C397.674 390.861 402.78 418.258 402.78 418.258C402.78 418.258 420.833 423.216 428.742 425.514C437.242 427.982 451.582 430.451 460.081 432.92C462.256 433.552 465.169 433.906 466.263 431.924C467.135 430.342 466.126 428.414 465.111 426.919C460.642 420.333 455.522 414.123 452.084 406.946C448.646 399.77 447.038 391.243 449.989 383.853C452.941 376.464 472.733 374.167 478.442 372.988Z" fill="#1B1F24"/>
<path d="M1041.58 625.109H1508.63C1514.83 625.109 1520.77 622.65 1525.15 618.273C1529.53 613.896 1532 607.959 1532 601.768V390.899C1532 384.709 1529.53 378.772 1525.15 374.394C1520.77 370.017 1514.83 367.558 1508.63 367.558H1041.58C1035.38 367.558 1029.44 370.017 1025.06 374.394C1020.68 378.772 1018.22 384.709 1018.22 390.899V601.768C1018.22 607.959 1020.68 613.896 1025.06 618.273C1029.44 622.65 1035.38 625.109 1041.58 625.109Z" fill="#1B1F24"/>
<path d="M1457.64 508.004H1085.27C1082.17 508.004 1079.2 506.775 1077.01 504.586C1074.82 502.397 1073.59 499.429 1073.59 496.334C1073.59 493.238 1074.82 490.27 1077.01 488.081C1079.2 485.893 1082.17 484.663 1085.27 484.663H1457.64C1460.74 484.663 1463.71 485.893 1465.9 488.081C1468.09 490.27 1469.32 493.238 1469.32 496.334C1469.32 499.429 1468.09 502.397 1465.9 504.586C1463.71 506.775 1460.74 508.004 1457.64 508.004Z" fill="#202730"/>
<path d="M1457.64 557.604H1085.27C1082.17 557.604 1079.2 556.374 1077.01 554.186C1074.82 551.997 1073.59 549.029 1073.59 545.933C1073.59 542.838 1074.82 539.87 1077.01 537.681C1079.2 535.493 1082.17 534.263 1085.27 534.263H1457.64C1460.74 534.263 1463.71 535.493 1465.9 537.681C1468.09 539.87 1469.32 542.838 1469.32 545.933C1469.32 549.029 1468.09 551.997 1465.9 554.186C1463.71 556.374 1460.74 557.604 1457.64 557.604Z" fill="#202730"/>
<path d="M1391.93 458.404H1085.27C1082.17 458.404 1079.2 457.175 1077.01 454.986C1074.82 452.797 1073.59 449.829 1073.59 446.734C1073.59 443.639 1074.82 440.67 1077.01 438.481C1079.2 436.293 1082.17 435.063 1085.27 435.063H1391.93C1395.03 435.063 1398 436.293 1400.19 438.481C1402.38 440.67 1403.61 443.639 1403.61 446.734C1403.61 449.829 1402.38 452.797 1400.19 454.986C1398 457.175 1395.03 458.404 1391.93 458.404Z" fill="#202730"/>
<path d="M665.465 917.649H316.46C316.073 917.649 315.702 917.495 315.428 917.221C315.154 916.948 315 916.577 315 916.19C315 915.803 315.154 915.432 315.428 915.158C315.702 914.885 316.073 914.731 316.46 914.731H665.465C665.853 914.731 666.224 914.885 666.498 915.158C666.772 915.432 666.926 915.803 666.926 916.19C666.926 916.577 666.772 916.948 666.498 917.221C666.224 917.495 665.853 917.649 665.465 917.649Z" fill="#181C20"/>
</g>
<defs>
<clipPath id="clip0_35_309">
<rect width="1290" height="755.649" fill="white" transform="translate(315 162)"/>
</clipPath>
</defs>
</svg>
